<svg xmlns="http://www.w3.org/2000/svg" version="1.1" xmlns:xlink="http://www.w3.org/1999/xlink" xmlns:svgjs="http://svgjs.dev/svgjs" width="1000" height="623" viewBox="0 0 1000 623"><g transform="matrix(1,0,0,1,-0.6060606060606233,0.2522267206477409)"><svg viewBox="0 0 396 247" data-background-color="#ffffff" preserveAspectRatio="xMidYMid meet" height="623" width="1000" xmlns="http://www.w3.org/2000/svg" xmlns:xlink="http://www.w3.org/1999/xlink"><g id="tight-bounds" transform="matrix(1,0,0,1,0.2400000000000091,-0.09999999999999432)"><svg viewBox="0 0 395.52 247.2" height="247.2" width="395.52"><g><svg></svg></g><g><svg viewBox="0 0 395.52 247.2" height="247.2" width="395.52"><g transform="matrix(1,0,0,1,39.55199999999999,98.81305996131528)"><svg viewBox="0 0 316.416 49.573880077369445" height="49.573880077369445" width="316.416"><g><svg viewBox="0 0 316.416 49.573880077369445" height="49.573880077369445" width="316.416"><g><svg viewBox="0 0 316.416 49.573880077369445" height="49.573880077369445" width="316.416"><g id="textblocktransform"><svg viewBox="0 0 316.416 49.573880077369445" height="49.573880077369445" width="316.416" id="textblock"><g><svg viewBox="0 0 316.416 49.573880077369445" height="49.573880077369445" width="316.416"><g transform="matrix(1,0,0,1,0,0)"><svg width="316.416" viewBox="2 -36 233.64 36.45" height="49.573880077369445" data-palette-color="#7cb798"><g class="undefined-text-0" data-fill-palette-color="primary" id="text-0"><path d="M9.7 0L9.7 0Q8.45 0 6.08 0 3.7 0 2.85-0.35 2-0.7 2-1.45L2-1.45 2-33Q2-34.15 5.08-34.83 8.15-35.5 11.65-35.5 15.15-35.5 16.65-34.6 18.15-33.7 18.4-32.7L18.4-32.7 21.8-19.5 22.25-19.5 25.45-32.1Q25.8-33.45 28.73-34.48 31.65-35.5 35.15-35.5 38.65-35.5 40.33-34.95 42-34.4 42-33.55L42-33.55 42-1.45Q42-0.8 39.15-0.4 36.3 0 32.2 0 28.1 0 28.1-1.45L28.1-1.45Q28.1-5.4 28.95-15.5L28.95-15.5 28.5-15.5 25.9-2.45Q25.75-1.7 24.68-1.35 23.6-1 21.45-1 19.3-1 18.82-1.3 18.35-1.6 18.2-2.45L18.2-2.45 15.5-15.5 15.05-15.5Q15.95-5.2 15.95-1.45L15.95-1.45Q15.95-0.15 9.7 0ZM59.8-2.55Q59.7-1.1 58.27-0.55 56.85 0 53.15 0 49.45 0 46.97-0.68 44.5-1.35 44.5-2.4L44.5-2.4Q44.5-3.6 48.95-17.73 53.4-31.85 54.05-34L54.05-34Q54.3-34.65 58.07-35.08 61.85-35.5 66.17-35.5 70.5-35.5 70.95-34L70.95-34Q80.4-2.6 80.4-2.1 80.4-1.6 79.8-1.1L79.8-1.1Q78.4 0 74.25 0L74.25 0Q65.4 0 65.2-2.1L65.2-2.1 64.85-5.35 60.05-5.35 59.8-2.55ZM61.1-14.85L63.8-14.85 63.05-23.85 61.95-23.85 61.1-14.85ZM108.35-2.1Q106.85-1 104.17-0.28 101.5 0.45 97.27 0.45 93.05 0.45 89.25-0.25 85.45-0.95 83.8-1.8 82.15-2.65 82.15-3.45L82.15-3.45Q82.15-6.25 82.95-9.28 83.75-12.3 84.85-12.3L84.85-12.3Q85.05-12.3 89-10.95 92.95-9.6 94.95-9.6 96.95-9.6 97.55-10.03 98.15-10.45 98.15-11.25 98.15-12.05 97.05-12.68 95.95-13.3 94.3-13.78 92.65-14.25 90.72-15.15 88.8-16.05 87.15-17.15 85.5-18.25 84.4-20.28 83.3-22.3 83.3-24.9L83.3-24.9Q83.3-36 96.55-36L96.55-36Q101.5-36 105.1-35.38 108.7-34.75 110.17-33.98 111.65-33.2 111.65-32.45L111.65-32.45Q111.65-29.85 110.42-26.85 109.2-23.85 108.05-23.85L108.05-23.85Q107.85-23.85 106.75-24.3L106.75-24.3Q103.45-25.75 101.27-25.75 99.1-25.75 98.32-25.35 97.55-24.95 97.55-24.13 97.55-23.3 98.65-22.78 99.75-22.25 101.37-21.83 103-21.4 104.92-20.53 106.85-19.65 108.5-18.48 110.15-17.3 111.25-15.15 112.35-13 112.35-10.15L112.35-10.15Q112.35-7.15 110.8-4.7L110.8-4.7Q109.85-3.2 108.35-2.1ZM129.49-9.05L129.49-1.45Q129.49-0.8 126.44-0.4 123.39 0 120.34 0 117.29 0 116.44-0.35 115.59-0.7 115.59-1.45L115.59-1.45 115.59-33.6Q115.59-36 129.99-36L129.99-36Q138.69-36 141.49-34.8L141.49-34.8Q144.89-33.4 146.09-31L146.09-31Q147.69-27.9 147.69-23.05L147.69-23.05Q147.69-16.4 145.39-13.4L145.39-13.4Q143.74-11.2 142.09-10.55 140.44-9.9 139.37-9.63 138.29-9.35 136.69-9.2L136.69-9.2Q134.49-9 130.69-9L130.69-9 129.49-9.05ZM129.54-27.6L129.54-17.35 130.74-17.35Q131.69-17.35 132.24-17.63 132.79-17.9 133.22-19.13 133.64-20.35 133.64-22.58 133.64-24.8 133.17-25.98 132.69-27.15 132.22-27.38 131.74-27.6 131.09-27.6L131.09-27.6 129.54-27.6ZM173.49 0L155.14 0Q152.64 0 151.79-0.28 150.94-0.55 150.94-1.2L150.94-1.2 150.94-32.3Q150.94-33.4 153.84-34.48 156.74-35.55 160.34-35.55L160.34-35.55Q163.54-35.55 164.54-34.2L164.54-34.2Q164.89-33.7 164.89-33.2L164.89-33.2 164.89-11.05Q170.99-11.45 174.09-11.45L174.09-11.45Q175.14-11.45 175.14-8.13 175.14-4.8 174.69-2.4 174.24 0 173.49 0L173.49 0ZM203.49 0L203.49 0 182.29 0Q179.84 0 178.99-0.35 178.14-0.7 178.14-1.45L178.14-1.45 178.14-33.1Q178.14-34.4 179.31-34.95 180.49-35.5 183.54-35.5L183.54-35.5 203.64-35.5Q204.69-35.5 204.69-32.02 204.69-28.55 204.24-26.73 203.79-24.9 203.04-24.9L203.04-24.9Q199.79-24.9 192.09-25.55L192.09-25.55 192.09-22.2Q199.49-22.5 201.74-22.5L201.74-22.5Q203.09-22.5 203.09-19.35 203.09-16.2 202.56-14.58 202.04-12.95 201.14-12.95L201.14-12.95 192.09-13.15 192.09-9.95Q200.79-10.6 204.09-10.6L204.09-10.6Q205.14-10.6 205.14-7.1 205.14-3.6 204.69-1.8 204.24 0 203.49 0ZM233.99 0L233.99 0 212.79 0Q210.34 0 209.49-0.35 208.64-0.7 208.64-1.45L208.64-1.45 208.64-33.1Q208.64-34.4 209.81-34.95 210.99-35.5 214.04-35.5L214.04-35.5 234.14-35.5Q235.19-35.5 235.19-32.02 235.19-28.55 234.74-26.73 234.29-24.9 233.54-24.9L233.54-24.9Q230.29-24.9 222.59-25.55L222.59-25.55 222.59-22.2Q229.99-22.5 232.24-22.5L232.24-22.5Q233.59-22.5 233.59-19.35 233.59-16.2 233.06-14.58 232.54-12.95 231.64-12.95L231.64-12.95 222.59-13.15 222.59-9.95Q231.29-10.6 234.59-10.6L234.59-10.6Q235.64-10.6 235.64-7.1 235.64-3.6 235.19-1.8 234.74 0 233.99 0Z" fill="#7cb798" data-fill-palette-color="primary"></path></g></svg></g></svg></g></svg></g></svg></g></svg></g></svg></g><g mask="url(&quot;#33d9999a-0d63-454c-9831-72d361220a5a&quot;)"><g transform="matrix(2.79532135130879, 0, 0, 2.79532135130879, 75.16139765998135, 1)"><svg xmlns="http://www.w3.org/2000/svg" xmlns:xlink="http://www.w3.org/1999/xlink" version="1.1" x="0" y="0" viewBox="1 1.2819993897318687 87.7170006107649 87.71800061026813" enable-background="new 0 0 90 90" xml:space="preserve" height="87.71800061026813" width="87.7170006107649" class="icon-none" data-fill-palette-color="accent" id="none"><g fill="#7cb798" data-fill-palette-color="accent"><circle cx="44.857" cy="69.042" r="6.2" fill="#7cb798" data-fill-palette-color="accent"></circle><circle cx="22.278" cy="38.248" r="4.3" fill="#7cb798" data-fill-palette-color="accent"></circle><circle cx="67.438" cy="38.248" r="4.3" fill="#7cb798" data-fill-palette-color="accent"></circle><path d="M85.269 28.069c-2.221-5.251-5.431-9.975-9.398-13.941l0.002 0.001c-3.966-3.967-8.689-7.177-13.939-9.399-5.25-2.221-11.031-3.449-17.074-3.448h-0.007c-6.041 0-11.818 1.228-17.065 3.448-5.251 2.221-9.974 5.433-13.941 9.397l0 0c-3.964 3.966-7.174 8.689-9.396 13.941C2.228 33.317 1 39.098 1 45.142c0 6.043 1.228 11.825 3.449 17.075 2.222 5.248 5.432 9.973 9.396 13.936 3.967 3.968 8.689 7.178 13.938 9.398h0.001C33.034 87.773 38.814 89 44.857 89c6.043 0 11.825-1.227 17.075-3.447l0.001-0.002c5.251-2.221 9.974-5.433 13.938-9.398 3.968-3.965 7.177-8.689 9.398-13.936 2.222-5.252 3.449-11.032 3.448-17.075C88.718 39.099 87.49 33.318 85.269 28.069zM77.166 58.787c-0.717 1.693-1.57 3.316-2.534 4.863l-3.087-3.086-6.547-6.547c-0.859-0.86-2.252-0.86-3.111 0-0.858 0.859-0.858 2.251 0 3.11l6.549 6.548 3.605 3.606c-0.715 0.873-1.47 1.713-2.263 2.514l-3.731-3.731-6.549-6.548c-0.859-0.859-2.251-0.859-3.11 0s-0.859 2.252 0 3.111l6.548 6.546 3.551 3.552c-2.428 1.906-5.104 3.507-7.981 4.723h0.001c-4.194 1.772-8.795 2.752-13.649 2.752-4.854 0-9.453-0.979-13.645-2.752h0c-4.19-1.771-7.97-4.342-11.146-7.517-3.173-3.172-5.742-6.954-7.514-11.145-1.772-4.192-2.754-8.792-2.754-13.645 0-4.853 0.982-9.454 2.754-13.646 1.39-3.287 3.274-6.315 5.55-9.001 0.615 1.358 1.467 2.637 2.585 3.754 2.487 2.489 5.748 3.732 9.01 3.731l46.78-0.005c0.24 0.501 0.47 1.008 0.688 1.521 1.771 4.191 2.752 8.792 2.752 13.646C79.918 49.995 78.938 54.596 77.166 58.787z" fill="#7cb798" data-fill-palette-color="accent"></path></g></svg></g></g></svg></g><defs><mask id="33d9999a-0d63-454c-9831-72d361220a5a"><rect width="640" height="400" fill="white"></rect><rect width="348.05760000000004" height="72.98028670365959" fill="black" y="87.1098566481702" x="23.731199999999973" id="transform-me"></rect></mask></defs></svg><rect width="395.52" height="247.2" fill="none" stroke="none" visibility="hidden"></rect></g></svg></g></svg>